<svg xmlns="http://www.w3.org/2000/svg" viewBox="0 0 1037.753 82.25"><defs><linearGradient id="a" x1="28.121" y1="35.051" x2="11.239" y2="64.292" gradientUnits="userSpaceOnUse"><stop offset="0" stop-color="#fff" stop-opacity=".4"/><stop offset=".923" stop-color="#fff"/></linearGradient></defs><g data-name="Layer 2"><path d="M19.354 30.115a1.856 1.856 0 0 0-3.157.343L.2 62.442a1.912 1.912 0 0 0 1.71 2.767h22.275a1.843 1.843 0 0 0 1.71-1.057c4.805-9.929 1.893-25.026-6.541-34.037z" fill="url(#a)"/><path d="M31.087 1.024a42.188 42.188 0 0 0-2.463 41.65l10.739 21.478a1.912 1.912 0 0 0 1.71 1.057h22.271a1.912 1.912 0 0 0 1.71-2.767S35.092 2.511 34.339 1.012a1.806 1.806 0 0 0-3.252.012zm261.227 25.645c0 7.92 3.674 14.208 18.045 16.984 8.574 1.8 10.37 3.184 10.37 6.042 0 2.776-1.8 4.573-7.839 4.573a44.236 44.236 0 0 1-20.821-5.634v12.9c4.328 2.123 10.043 4.491 20.658 4.491 15.024 0 20.985-6.7 20.985-16.657m0 0c0-9.39-4.981-13.8-19.025-16.82-7.757-1.715-9.635-3.429-9.635-5.879 0-3.1 2.776-4.409 7.92-4.409 6.206 0 12.33 1.878 18.127 4.491v-12.33a40.97 40.97 0 0 0-17.719-3.674c-13.881 0-21.066 6.042-21.066 15.922m193.018-15.106v53.646h11.431V24.301l4.818 10.859 16.167 30.049h14.371V11.563h-11.431v34.621L516.36 36.14l-12.983-24.577h-18.045zm-85.199 0h12.493v53.646h-12.493zm-14.415 37.805c0-9.39-4.981-13.8-19.025-16.82-7.757-1.715-9.635-3.429-9.635-5.879 0-3.1 2.776-4.409 7.92-4.409 6.206 0 12.33 1.878 18.127 4.491v-12.33a40.97 40.97 0 0 0-17.719-3.674c-13.881 0-21.066 6.042-21.066 15.922 0 7.92 3.674 14.208 18.045 16.984 8.574 1.8 10.37 3.184 10.37 6.042 0 2.776-1.8 4.573-7.839 4.573a44.236 44.236 0 0 1-20.821-5.634v12.9c4.328 2.123 10.043 4.491 20.658 4.491 15.024 0 20.985-6.7 20.985-16.657M195.265 11.563v53.646h25.678l4.043-11.595h-17.147V11.563h-12.574zm-50.732 0v11.594h13.881v42.052h12.574V23.157h14.861V11.563h-41.316zm-18.233 0h-16.479L91.114 65.209H105.4l2.652-9.035a35.508 35.508 0 0 0 20.008 0l2.652 9.035h14.289zM118.06 46.5a24.4 24.4 0 0 1-6.875-.989L118.06 22.1l6.875 23.419a24.4 24.4 0 0 1-6.875.981zm147.151-34.937h-16.478l-18.707 53.646h14.289l2.652-9.035a35.508 35.508 0 0 0 20.008 0l2.652 9.035h14.289zM256.972 46.5a24.4 24.4 0 0 1-6.875-.989l6.875-23.411 6.875 23.419a24.4 24.4 0 0 1-6.875.981zm200.672-34.937h-16.478l-18.707 53.646h14.289l2.652-9.035a35.508 35.508 0 0 0 20.008 0l2.652 9.035h14.29zM449.4 46.5a24.4 24.4 0 0 1-6.875-.989L449.4 22.1l6.875 23.419a24.4 24.4 0 0 1-6.875.981zM584.383 7.276l8.623 23.583 8.1 24.552 8.008-24.552 8.712-23.583h12.672v57.815h-7.92V12.645L616.413 33.5l-11.527 31.591h-7.567L585.879 33.5l-7.128-21.472v53.063h-7.92V7.276zM673 57.171c-2.815 5.808-8.1 8.8-14.871 8.8-11.7 0-17.6-9.943-17.6-22.879 0-12.408 6.159-22.88 18.479-22.88 6.424 0 11.352 2.9 13.991 8.624v-7.744h7.568v44H673zm-12.848 1.76c6.776 0 12.848-4.312 12.848-14.079v-3.521c0-9.768-5.544-14.079-11.968-14.079-8.535 0-12.936 5.632-12.936 15.84-.001 10.559 4.222 15.839 12.054 15.839zm31.854-37.839h7.394v7.744c2.552-5.192 6.952-8.888 15.576-8.359v7.392C705.294 26.9 699.4 29.8 699.4 39.132v25.959h-7.392zm29.479 43.999V2.7h7.568v38.984l18.919-20.592h9.855l-20.678 21.647 21.559 22.352h-10.295L729.054 44.5v20.591zm62.303.88c-16.455 0-23.671-9.5-23.671-22.967 0-13.288 7.392-22.792 20.768-22.792 13.551 0 19.007 9.416 19.007 22.792v3.432h-32.12c1.057 7.479 5.9 12.319 16.28 12.319a38.979 38.979 0 0 0 13.375-2.376v6.952c-3.607 1.936-9.151 2.64-13.639 2.64zm-16.1-26.047h24.552c-.44-8.184-4.136-12.848-11.7-12.848-8.016 0-12.063 5.192-12.855 12.848zM826.292 57.7a24.033 24.033 0 0 0 4.752-.616v7.3a18.153 18.153 0 0 1-5.1.7c-9.415 0-13.991-5.544-13.991-13.728V28.132h-7.133v-7.04h7.128v-9.327h7.392v9.327h11.7v7.04h-11.7v23.056c0 3.872 2.288 6.512 6.952 6.512zm22-.353v24.9h-7.568V21.092h7.568v7.92c2.815-5.808 8.1-8.8 14.871-8.8 11.7 0 17.6 9.944 17.6 22.88 0 12.407-6.16 22.879-18.479 22.879-6.425 0-11.352-2.905-13.992-8.624zm12.847-30.095c-6.775 0-12.847 4.312-12.847 14.079v3.521c0 9.768 5.543 14.079 11.967 14.079 8.536 0 12.936-5.632 12.936-15.839-.001-10.56-4.224-15.84-12.056-15.84zm40.216 38.103c-7.216 0-11.792-3.432-11.792-11.527V2.7h7.568v50.247c0 3.96 2.64 5.368 5.9 5.368a18.965 18.965 0 0 0 2.2-.089V65a16.107 16.107 0 0 1-3.876.355zm40.567-8.184c-2.815 5.808-8.1 8.8-14.871 8.8-11.7 0-17.6-9.943-17.6-22.879 0-12.408 6.159-22.88 18.479-22.88 6.424 0 11.352 2.9 13.991 8.624v-7.744h7.568v44h-7.568zm-12.848 1.76c6.776 0 12.848-4.312 12.848-14.079v-3.521c0-9.768-5.544-14.079-11.968-14.079-8.535 0-12.936 5.632-12.936 15.84.001 10.559 4.224 15.839 12.056 15.839zm62.92 5.016c-2.641 1.407-6.688 2.023-10.736 2.023-15.663 0-22.967-9.5-22.967-22.967 0-13.288 7.3-22.792 22.967-22.792a23.26 23.26 0 0 1 10.472 2.112v7.04a22.17 22.17 0 0 0-9.943-2.112c-11.439 0-16.1 7.216-16.1 15.752s4.752 15.751 16.279 15.751a27.8 27.8 0 0 0 10.032-1.584zm29.655 2.024c-16.455 0-23.671-9.5-23.671-22.967 0-13.288 7.392-22.792 20.768-22.792 13.551 0 19.007 9.416 19.007 22.792v3.432h-32.119c1.057 7.479 5.9 12.319 16.28 12.319a38.979 38.979 0 0 0 13.375-2.376v6.952c-3.607 1.936-9.151 2.64-13.64 2.64zm-16.1-26.047h24.551c-.44-8.184-4.136-12.848-11.7-12.848-8.014 0-12.062 5.192-12.854 12.848z" fill="#fff"/></g></svg>